Coordinates
version=1
nRows=5
nColumns=42
inDegrees=yes

Units are S.I. units (second, meters, Newtons, ...)
If the header above contains a line with 'inDegrees', this indicates whether rotational values are in degrees (yes) or radians (no).

endheader
time	pelvis_tilt	pelvis_list	pelvis_rotation	pelvis_tx	pelvis_ty	pelvis_tz	hip_flexion_r	hip_adduction_r	hip_rotation_r	knee_angle_r	knee_adduction_r	knee_angle_r_beta	ankle_angle_r	subtalar_angle_r	mtp_angle_r	hip_flexion_l	hip_adduction_l	hip_rotation_l	knee_angle_l	knee_adduction_l	knee_angle_l_beta	ankle_angle_l	subtalar_angle_l	mtp_angle_l	lumbar_extension	lumbar_bending	lumbar_rotation	arm_flex_r	arm_add_r	arm_rot_r	elbow_flex_r	pro_sup_r	wrist_flex_r	wrist_dev_r	arm_flex_l	arm_add_l	arm_rot_l	elbow_flex_l	pro_sup_l	wrist_flex_l	wrist_dev_l
      2.32000000	     13.31962889	      4.09285005	      1.92860619	     -0.51966413	      0.91491465	     -0.00064427	     16.53773051	    -11.00216137	    -39.08248150	     34.53878136	     -8.42446603	      0.60281545	     12.17363664	     34.40032703	     -7.50893065	    -18.47193883	      7.30053773	     -9.10760607	     28.64707043	    -12.29173831	      0.49998570	     24.13782970	     21.22190697	     -7.50893065	    -34.32088922	     -3.25803790	     -6.67859201	    -13.10086215	    -10.18685199	      2.56495686	     35.77063157	     90.00000001	      0.00000000	      0.00000000	     30.17210022	    -16.14718343	    -19.25839669	     48.62457445	     90.00000001	      0.00000000	      0.00000000
      2.33000000	     13.80355948	      3.82969551	      1.91858396	     -0.50962348	      0.91523415	      0.00093503	     15.63603854	    -10.55586248	    -38.97734322	     35.16014784	     -8.76281024	      0.61366035	     12.06522017	     34.01313706	     -7.50877936	    -19.30682357	      6.73470933	     -9.00718288	     29.44704060	    -12.14713515	      0.51394781	     23.44737320	     20.96741715	     -7.50877936	    -34.55629871	     -2.85721071	     -6.49504644	    -12.42800192	    -10.20459028	      2.33755166	     35.24332338	     90.00000001	      0.00000000	      0.00000000	     29.39296297	    -16.30850753	    -19.42585816	     49.66246589	     90.00000001	      0.00000000	      0.00000000
      2.34000000	     14.27399372	      3.68775188	      1.78315914	     -0.49968566	      0.91557745	      0.00267926	     14.87661932	    -10.26372575	    -38.84451692	     35.99394689	     -9.16650371	      0.62821288	     11.93323295	     33.95613267	     -7.50872946	    -19.98400036	      6.34820600	     -8.94452951	     30.48237479	    -12.01204827	      0.53201780	     22.70586492	     20.89389284	     -7.50872946	    -34.78067063	     -2.64007594	     -6.19453707	    -11.81288469	    -10.23972632	      2.25007478	     34.93584979	     90.00000001	      0.00000000	      0.00000000	     28.77994496	    -16.41143302	    -19.58871963	     50.25370219	     90.00000001	      0.00000000	      0.00000000
      2.35000000	     14.73790334	      3.34320201	      1.66333601	     -0.48967885	      0.91618385	      0.00460397	     13.95749760	     -9.59870290	    -38.71092225	     36.38589926	     -9.53417376	      0.63505374	     11.90791659	     34.02852450	     -7.50859394	    -20.38843213	      5.69687003	     -9.18285200	     31.98750885	    -11.95078652	      0.55828735	     21.17348135	     20.23384354	     -7.50859394	    -35.01851211	     -2.24500044	     -6.05460972	    -10.81098480	    -10.23925458	      2.01138870	     34.14393485	     90.00000001	      0.00000000	      0.00000000	     27.53802429	    -16.62898139	    -19.87370556	     51.88516223	     90.00000001	      0.00000000	      0.00000000
      2.36000000	     15.22984480	      3.07896652	      1.47901725	     -0.47980574	      0.91691073	      0.00674655	     13.07535904	     -9.02908667	    -38.55128284	     36.90261939	     -9.92727345	      0.64407221	     11.89298854	     34.28123777	     -7.50846702	    -20.64767059	      5.14276854	     -9.34707971	     33.79101726	    -11.87233306	      0.58976451	     19.49213992	     19.57407198	     -7.50846702	    -35.30849451	     -1.99148860	     -5.81598342	     -9.88614259	    -10.21339214	      1.85222070	     33.60045832	     90.00000001	      0.00000000	      0.00000000	     26.51236874	    -16.77790895	    -20.12211152	     53.03052903	     90.00000001	      0.00000000	      0.00000000
